<svg width="213" height="221" viewBox="0 0 213 221" xmlns="http://www.w3.org/2000/svg" xmlns:xlink="http://www.w3.org/1999/xlink"><title>appSuccess</title><defs><path id="b" d="M35.385 0L0 31.5V119h92V0z"/><filter x="-50%" y="-50%" width="200%" height="200%" filterUnits="objectBoundingBox" id="a"><feOffset dy="4" in="SourceAlpha" result="shadowOffsetOuter1"/><feGaussianBlur stdDeviation="5" in="shadowOffsetOuter1" result="shadowBlurOuter1"/><feColorMatrix values="0 0 0 0 0 0 0 0 0 0 0 0 0 0 0 0 0 0 0.1 0" in="shadowBlurOuter1"/></filter></defs><g fill="none" fill-rule="evenodd"><circle fill="#158564" cx="105.5" cy="105.5" r="105.5"/><g transform="matrix(-1 0 0 1 156 45)"><use fill="#000" filter="url(#a)" xlink:href="#b"/><use fill="#FFF" xlink:href="#b"/></g><path fill="#EDEDEE" d="M74.615 66h56.616v-7H74.616v7M74.615 80h70.77v-7h-70.77v7M74.615 94h70.77v-7h-70.77v7M74.615 108h70.77v-7h-70.77v7M74.615 136h70.77v-7h-70.77v7M74.615 122h70.77v-7h-70.77v7M74.615 150h70.77v-7h-70.77v7"/><path fill="#D8D8DB" d="M156 76.5h-35.385V45z"/><g transform="translate(117 125)"><circle stroke="#FAFAFA" stroke-width="6" fill="#158564" cx="46.5" cy="46.5" r="46.5"/><path d="M65.525 24.886L37.48 52.932c-.868.87-2.292.87-3.16 0l-6.908-6.907a2.243 2.243 0 0 0-3.162 0l-4.236 4.24c-.87.868-.87 2.292 0 3.16L34.32 67.73c.868.87 2.292.87 3.16 0l35.443-35.444c.87-.87.87-2.293 0-3.162l-4.236-4.236a2.243 2.243 0 0 0-3.162 0z" fill="#FFF"/></g></g></svg>