<svg width="60" height="60" viewBox="0 0 60 60" xmlns="http://www.w3.org/2000/svg" xmlns:xlink="http://www.w3.org/1999/xlink"><title>circleClass</title><defs><circle id="a" cx="30" cy="30" r="30"/><mask id="b" x="0" y="0" width="60" height="60" fill="#fff"><use xlink:href="#a"/></mask></defs><g fill="none" fill-rule="evenodd"><g fill="#A1B6E0"><path d="M22.03 32.98c-.188 0-.328-.047-.47-.093a1.002 1.002 0 0 1-.56-.914V21.005c0-.548.468-1.005 1.03-1.005h5.94c.562 0 1.03.457 1.03 1.005v10.968c0 .366-.234.73-.56.914-.376.183-.797.137-1.077-.09l-2.386-1.646-2.386 1.647c-.14.137-.326.183-.56.183zm1.075-10.924v7.906l1.31-.914a1.002 1.002 0 0 1 1.217 0l1.31.914v-7.906h-3.837z"/><path d="M17 21c0-1.754 0-5 3.41-5h24.563c.56 0 1.027.44 1.027.965 0 .526-.467.965-1.027.965H20.41c-.982 0-1.31.438-1.31 3.026 0 2.588.328 3.026 1.31 3.026.56 0 1.59.018 1.59.018v2h-1.59C17 26 17 22.754 17 21z"/><path d="M43.032 28c-.352 0-.66-.214-.88-.59-2.548-5.463-.087-10.605 0-10.82.264-.588.88-.75 1.363-.427.483.32.615 1.07.35 1.66-.086.16-1.932 4.232 0 8.463.265.59.09 1.34-.35 1.66-.176 0-.308.054-.483.054z"/><path d="M41.032 36c-.352 0-.66-.18-.88-.49-2.548-4.554-.087-8.84 0-9.017.264-.49.88-.625 1.363-.357.483.267.615.892.35 1.383-.086.132-1.932 3.524 0 7.05.265.49.09 1.117-.35 1.384-.176 0-.308.045-.483.045z"/><path d="M44.988 44h-25.63C16 44 16 40.754 16 39s0-5 3.36-5h25.628c.552 0 1.012.44 1.012.965 0 .526-.46.965-1.012.965h-25.63c-.965 0-1.287.438-1.287 3.026 0 2.588.324 3.026 1.29 3.026h25.63c.55 0 1.01.44 1.01.965 0 .527-.46 1.053-1.01 1.053z"/><path d="M44.01 44c-.35 0-.653-.176-.87-.484-2.52-4.44-.087-8.835 0-9.01a.94.94 0 0 1 1.346-.353c.478.264.652.88.392 1.363-.087.132-1.956 3.605 0 7.077.26.484.086 1.1-.348 1.363-.217 0-.39.044-.52.044z"/><path d="M15.43 36C12 36 12 32.754 12 31s0-5 3.43-5h6.767v1.93H15.43c-.987 0-1.315.438-1.315 3.026 0 2.588.328 3.026 1.315 3.026h27.536c.564 0 1.034.44 1.034.965 0 .527-.47 1.053-1.034 1.053H15.43zm29.55-8H28.02c-.557 0-1.02-.455-1.02-1 0-.545.463-1 1.02-1h16.96c.557 0 1.02.455 1.02 1 0 .545-.463 1-1.02 1z"/></g><use stroke="#A1B6E0" mask="url(#b)" stroke-width="4" xlink:href="#a"/></g></svg>