<svg width="60" height="60" viewBox="0 0 60 60" xmlns="http://www.w3.org/2000/svg" xmlns:xlink="http://www.w3.org/1999/xlink"><title>circleDegree</title><defs><path id="b" d="M0 .17v21.463h42V.17H0z"/><circle id="a" cx="30" cy="30" r="30"/><mask id="d" x="0" y="0" width="60" height="60" fill="#fff"><use xlink:href="#a"/></mask></defs><g fill="none" fill-rule="evenodd"><g transform="translate(9 15.83)"><mask id="c" fill="#fff"><use xlink:href="#b"/></mask><path d="M3.286 10.9L21 19.52l17.715-8.62L21 2.28 3.286 10.9zM21 21.632c-.15 0-.3-.033-.437-.1l-20-9.736a1 1 0 0 1 0-1.798l20-9.73a1.01 1.01 0 0 1 .875 0l20 9.73a1 1 0 0 1 0 1.797l-20 9.735a.99.99 0 0 1-.438.1z" fill="#A1B6E0" mask="url(#c)"/></g><path d="M29.974 45.83c-4.13 0-8.257-1.02-12.022-3.056l-1.96-1.06a1 1 0 0 1-.524-.88v-9.592a1 1 0 0 1 2 0v8.996l1.436.777a23.175 23.175 0 0 0 22.137 0l1.463-.78v-8.993a1 1 0 0 1 2 0v9.593a1 1 0 0 1-.53.882l-1.984 1.06a25.217 25.217 0 0 1-12.015 3.053M11.01 28.22a1 1 0 0 1-.043-1.998l18.99-.838A1.017 1.017 0 0 1 31 26.34a1.002 1.002 0 0 1-.957 1.04l-18.99.84h-.044m.174 10.224a1 1 0 0 1-1-1v-5.247a1 1 0 0 1 2 0v5.247a1 1 0 0 1-1 1" fill="#A1B6E0"/><path d="M30 27.388a1.01 1.01 0 0 1-1-1c0-.27.11-.53.29-.71.38-.37 1.04-.37 1.42 0 .18.18.29.44.29.71a1.01 1.01 0 0 1-1 1" fill="#A1B6E0"/><use stroke="#A1B6E0" mask="url(#d)" stroke-width="4" xlink:href="#a"/></g></svg>