<svg width="60" height="60" viewBox="0 0 60 60" xmlns="http://www.w3.org/2000/svg" xmlns:xlink="http://www.w3.org/1999/xlink"><title>circlePayment</title><defs><circle id="a" cx="30" cy="30" r="30"/><mask id="b" x="0" y="0" width="60" height="60" fill="#fff"><use xlink:href="#a"/></mask></defs><g fill="none" fill-rule="evenodd"><use stroke="#A1B6E0" mask="url(#b)" stroke-width="4" xlink:href="#a"/><path d="M44.09 15a.99.99 0 0 0-.24.03l-14.83 4.075H13.182c-.495 0-.91.5-.91.912v3.69l-1.604.443a.94.94 0 0 0-.64 1.126l2.245 8.195v5.704c0 .478.433.912.91.912h.908l.94 3.435a.95.95 0 0 0 .88.67c.048 0 .163-.02.243-.043l14.773-4.062H46.82c.476 0 .91-.434.91-.912v-3.705l1.604-.442a.928.928 0 0 0 .64-1.112L47.73 25.72v-5.7c0-.48-.435-.914-.91-.914h-.91l-.938-3.435a.886.886 0 0 0-.88-.67zm-.638 2.024l.568 2.08h-8.14l7.572-2.08zm-29.36 3.905H45.91v17.33H14.09V20.93zM30 21.84c-4.257 0-7.727 3.483-7.727 7.755 0 4.27 3.47 7.753 7.727 7.753s7.727-3.482 7.727-7.753c0-4.272-3.47-7.754-7.727-7.754zm0 1.826a5.905 5.905 0 0 1 5.91 5.93A5.905 5.905 0 0 1 30 35.523a5.905 5.905 0 0 1-5.91-5.93A5.905 5.905 0 0 1 30 23.667zm0 .912c-.43 0-.91.46-.91.912v.142c-1.062.34-1.817 1.25-1.817 2.324 0 .64.2 1.316.696 1.81.493.493 1.22.74 2.03.74.47 0 .66.108.75.2.094.093.157.23.157.513 0 .156-.292.653-.91.653-.6 0-.89-.2-1.01-.428-.218-.425-.81-.605-1.234-.384-.424.22-.603.8-.384 1.226.353.69 1 1.11 1.72 1.297v.114c0 .48.48.91.907.91.43 0 .91-.43.91-.91v-.13c1.062-.34 1.817-1.277 1.817-2.35 0-.64-.2-1.317-.696-1.81-.496-.494-1.223-.728-2.03-.728-.473 0-.66-.12-.754-.214-.093-.094-.156-.232-.156-.514 0-.16.292-.642.91-.642.6 0 .89.186 1.01.415.218.425.81.604 1.234.384.424-.22.603-.8.384-1.227-.354-.69-1-1.1-1.72-1.283v-.113c0-.518-.48-.912-.908-.912zM12.273 25.59v.97l-.242-.9.245-.07zm5.91.812c-1.497 0-2.728 1.236-2.728 2.737 0 1.5 1.23 2.733 2.727 2.733 1.495 0 2.727-1.236 2.727-2.736a2.748 2.748 0 0 0-2.73-2.738zm23.635 0c-1.495 0-2.727 1.236-2.727 2.737 0 1.5 1.235 2.733 2.73 2.733 1.496 0 2.727-1.236 2.727-2.736 0-1.502-1.23-2.738-2.727-2.738zm-23.636 1.824c.513 0 .91.398.91.913a.897.897 0 0 1-.91.91.897.897 0 0 1-.91-.91.9.9 0 0 1 .91-.916zm23.636 0c.513 0 .91.398.91.913a.897.897 0 0 1-.91.91.897.897 0 0 1-.91-.91.9.9 0 0 1 .91-.916zm5.91 4.404l.24.884-.24.07v-.954zM15.98 40.084h8.082l-7.514 2.067-.568-2.064z" fill="#A1B6E0"/></g></svg>