<svg width="60" height="60" viewBox="0 0 60 60" xmlns="http://www.w3.org/2000/svg" xmlns:xlink="http://www.w3.org/1999/xlink"><title>circleProfile</title><defs><circle id="a" cx="30" cy="30" r="30"/><mask id="b" x="0" y="0" width="60" height="60" fill="#fff"><use xlink:href="#a"/></mask></defs><g fill="none" fill-rule="evenodd"><path d="M41 52.398H19c-2.21 0-4-1.85-4-4.13v-30.98c0-2.28 1.79-4.13 4-4.13h7V9.03c0-2.28 1.79-4.13 4-4.13s4 1.85 4 4.13v4.13h7c2.21 0 4 1.85 4 4.13v30.98c0 2.28-1.79 4.13-4 4.13zm-9-43.37c0-1.14-.896-2.065-2-2.065s-2 .925-2 2.065v6.196c0 1.14.896 2.065 2 2.065s2-.927 2-2.067V9.028zm11 8.26c0-1.14-.896-2.064-2-2.064h-7c0 2.28-1.79 4.13-4 4.13s-4-1.85-4-4.13h-7c-1.104 0-2 .925-2 2.065v24.78h3.797c.23-.608.656-1.6 1.16-2.313.025-.016.848-1.797 4.998-1.85.006-.02.01-1.076.022-1.06a7.32 7.32 0 0 1-1.05-.843c-.256-.16-1.162-1.062-1.453-2.667-.087-.56-.488-3.2-.488-4.302 0-3.274 1.265-6.59 5.953-6.59h.12c4.687 0 5.952 3.316 5.952 6.59 0 1.102-.4 3.742-.488 4.302-.29 1.605-1.196 2.506-1.452 2.667-.313.31-.73.634-1.05.843.012-.016.017 1.04.02 1.06 4.152.053 4.975 1.834 5 1.85.503.712.928 1.704 1.16 2.312H43V17.29zM31.014 36.38v.004c-.004 0-.018-.806-.018-.806s1.166-.62 2.03-1.423c.508-.43.742-1.407.742-1.407.137-.855.238-2.97.238-3.823 0-2.13-1.033-4.42-4.007-4.42v-.007.007c-2.976 0-4.01 2.29-4.01 4.42 0 .853.104 2.968.24 3.823 0 0 .233.976.74 1.407.865.802 2.03 1.423 2.03 1.423s-.013.806-.017.806v-.004s.03 1.184.03 1.535c0 1.407-1.366 2.084-2.224 2.084h-.004c-2.593.116-3.205 1.006-3.21 1.015-.158.26-.377.52-.58 1.056h14.006c-.203-.534-.422-.794-.582-1.054-.005-.01-.618-.9-3.21-1.017h-.002c-.858 0-2.224-.677-2.224-2.085 0-.352.03-1.536.03-1.536zM43 44.137H17v4.13c0 1.14.896 2.066 2 2.066h22c1.104 0 2-.925 2-2.065v-4.13zm-6 4.13h-3c-.553 0-1-.46-1-1.032 0-.57.447-1.033 1-1.033h3c.553 0 1 .462 1 1.033 0 .57-.447 1.033-1 1.033zm-8 0h-6c-.553 0-1-.46-1-1.032 0-.57.447-1.033 1-1.033h6c.553 0 1 .462 1 1.033 0 .57-.447 1.033-1 1.033zM29 9h2v2h-2V9z" fill="#A1B6E0"/><use stroke="#A1B6E0" mask="url(#b)" stroke-width="4" xlink:href="#a"/></g></svg>