<svg width="60" height="60" viewBox="0 0 60 60" xmlns="http://www.w3.org/2000/svg" xmlns:xlink="http://www.w3.org/1999/xlink"><title>circleSchool</title><defs><circle id="a" cx="30" cy="30" r="30"/><mask id="b" x="0" y="0" width="60" height="60" fill="#fff"><use xlink:href="#a"/></mask></defs><g fill="none" fill-rule="evenodd"><path fill="#A1B6E0" d="M10 45h40v1.5H10z"/><path d="M9.012 45.523h2.405v-2.548c0-.866.7-1.58 1.552-1.58h2.403V24.28c0-1.12.9-2.09 2.053-2.09h1.353c1.1 0 2.053.918 2.053 2.09v17.067h2.504v-17.07c0-1.12.902-2.09 2.054-2.09h1.353c1.102 0 2.054.92 2.054 2.09v17.068H31.3V24.278c0-1.12.903-2.09 2.055-2.09h1.352c1.102 0 2.054.918 2.054 2.09v17.067h2.506V24.278c0-1.12.9-2.09 2.053-2.09h1.352c1.102 0 2.053.918 2.053 2.09v17.067h2.305c.852 0 1.553.713 1.553 1.58v2.547h2.405c.85 0-42.827.05-41.976.05zm38.12.477v-3.025c0-.05-.05-.102-.1-.102h-3.858V24.278c0-.306-.25-.612-.6-.612H41.22c-.3 0-.6.255-.6.612v18.544h-5.41V24.278c0-.306-.25-.612-.602-.612h-1.352c-.3 0-.6.255-.6.612v18.544h-5.36V24.278c0-.306-.25-.612-.602-.612h-1.352c-.3 0-.6.255-.6.612v18.544h-5.36V24.278c0-.306-.252-.612-.602-.612h-1.353c-.3 0-.6.255-.6.612v18.544H12.97c-.05 0-.1.05-.1.102v3.025l34.26.05zM45.88 20.558H14.12c-.85 0-1.55-.56-1.802-1.426-.2-.866.15-1.68.902-2.09L29.098 8.23a1.79 1.79 0 0 1 1.754 0l15.878 8.813c.75.408 1.102 1.274.902 2.09-.2.865-.902 1.425-1.753 1.425zM30 9.452c-.05 0-.15 0-.2.05l-15.88 8.815c-.25.153-.2.356-.2.458 0 .102.1.306.4.306h31.76c.25 0 .35-.202.4-.304 0-.102.05-.305-.2-.458L30.2 9.503c-.05 0-.15-.05-.2-.05zm-.05 8.814c-1.653 0-3.005-1.376-3.005-3.057 0-1.683 1.352-3.06 3.005-3.06 1.653 0 3.005 1.377 3.005 3.058 0 1.68-1.352 3.056-3.005 3.056zm0-4.636c-.852 0-1.553.713-1.553 1.58 0 .865.7 1.578 1.553 1.578.85 0 1.553-.713 1.553-1.58 0-.865-.702-1.578-1.553-1.578z" fill="#A1B6E0"/><use stroke="#A1B6E0" mask="url(#b)" stroke-width="4" xlink:href="#a"/></g></svg>