<svg width="60" height="60" viewBox="0 0 60 60" xmlns="http://www.w3.org/2000/svg" xmlns:xlink="http://www.w3.org/1999/xlink"><title>circleTerms</title><defs><circle id="a" cx="30" cy="30" r="30"/><mask id="b" x="0" y="0" width="60" height="60" fill="#fff"><use xlink:href="#a"/></mask></defs><g fill="none" fill-rule="evenodd"><use stroke="#A1B6E0" mask="url(#b)" stroke-width="4" xlink:href="#a"/><path d="M41 15H17v30h24v-7" stroke="#A1B6E0" stroke-width="2"/><path fill="#A1B6E0" d="M20 20h14v2H20zm0 4h14v2H20zm0 4h14v2H20z"/><path d="M42 19l-6 15v5l4-3s6-14 6-15-2-3-4-2zm-6 13l4 2m-19.8 5.855c9.187-9.857-2.48-4.418 4.834.306 5.352 3.46 2.337-4.34 11.23.28" stroke="#A1B6E0" stroke-width="2"/></g></svg>