<svg width="60" height="60" viewBox="0 0 60 60" xmlns="http://www.w3.org/2000/svg" xmlns:xlink="http://www.w3.org/1999/xlink"><title>circleEmail</title><defs><circle id="a" cx="30" cy="30" r="30"/><mask id="b" x="0" y="0" width="60" height="60" fill="#fff"><use xlink:href="#a"/></mask></defs><g fill="none" fill-rule="evenodd"><use stroke="#A1B6E0" mask="url(#b)" stroke-width="4" xlink:href="#a"/><path d="M44.936 28.143c0 1.83-.284 3.508-.85 5.03-.57 1.522-1.37 2.702-2.4 3.54-1.032.84-2.22 1.258-3.56 1.258-1.11 0-2.045-.332-2.806-1.003-.76-.67-1.212-1.53-1.354-2.573h-.155c-.513 1.122-1.25 2-2.212 2.63-.96.633-2.1.95-3.415.95-1.933 0-3.446-.662-4.536-1.984-1.09-1.323-1.634-3.12-1.634-5.39 0-2.63.76-4.77 2.283-6.413 1.522-1.644 3.52-2.467 5.997-2.467.877 0 1.87.08 2.98.24 1.11.163 2.108.385 2.998.67l-.482 9.092v.425c0 2.296.857 3.444 2.573 3.444 1.175 0 2.13-.69 2.864-2.08.736-1.383 1.104-3.186 1.104-5.404 0-2.335-.477-4.38-1.432-6.133a9.867 9.867 0 0 0-4.072-4.052c-1.76-.947-3.783-1.42-6.066-1.42-2.876 0-5.378.595-7.506 1.79-2.127 1.19-3.752 2.894-4.875 5.106-1.122 2.212-1.683 4.77-1.683 7.67 0 3.935 1.038 6.96 3.114 9.075 2.077 2.116 5.07 3.174 8.977 3.174 2.71 0 5.52-.554 8.436-1.663v2.574c-2.476 1.083-5.29 1.625-8.435 1.625-4.68 0-8.315-1.287-10.9-3.86C15.292 39.41 14 35.817 14 31.2c0-3.354.69-6.34 2.07-8.958 1.38-2.618 3.347-4.647 5.9-6.085C24.526 14.72 27.454 14 30.755 14c2.774 0 5.24.584 7.4 1.75a12.242 12.242 0 0 1 5.012 4.973c1.18 2.148 1.77 4.62 1.77 7.42zM24.93 30.677c0 3.276 1.26 4.914 3.774 4.914 2.67 0 4.12-2.015 4.353-6.052l.27-5.05c-.928-.258-1.94-.387-3.037-.387-1.677 0-2.99.58-3.937 1.74-.948 1.16-1.422 2.774-1.422 4.838z" fill="#A1B6E0"/></g></svg>