<svg width="60" height="60" viewBox="0 0 60 60" xmlns="http://www.w3.org/2000/svg" xmlns:xlink="http://www.w3.org/1999/xlink"><title>circleProfile</title><defs><circle id="a" cx="30" cy="30" r="30"/><mask id="c" x="0" y="0" width="60" height="60" fill="#fff"><use xlink:href="#a"/></mask><path d="M13 22.99A3.996 3.996 0 0 1 17 19h26a4 4 0 0 1 4 3.99v13.5a3.993 3.993 0 0 1-4.01 3.99H39.71L39.563 48l-9.266-7.52H17a4 4 0 0 1-4-3.99v-13.5z" id="b"/><mask id="d" x="0" y="0" width="34" height="29" fill="#fff"><use xlink:href="#b"/></mask></defs><g fill="none" fill-rule="evenodd"><use stroke="#A1B6E0" mask="url(#c)" stroke-width="4" xlink:href="#a"/><use stroke="#A1B6E0" mask="url(#d)" stroke-width="4" xlink:href="#b"/><g transform="translate(21 28)" fill="#A1B6E0"><circle cx="2" cy="2" r="2"/><circle cx="9" cy="2" r="2"/><circle cx="16" cy="2" r="2"/></g></g></svg>