<svg width="60" height="60" viewBox="0 0 60 60" xmlns="http://www.w3.org/2000/svg" xmlns:xlink="http://www.w3.org/1999/xlink"><title>circleSend</title><defs><circle id="a" cx="30" cy="30" r="30"/><mask id="b" x="0" y="0" width="60" height="60" fill="#fff"><use xlink:href="#a"/></mask></defs><g fill="none" fill-rule="evenodd"><path d="M30.032 24.308a.89.89 0 0 0 .023 1.257l3.485 3.36H16.006a.89.89 0 0 0 0 1.778H33.54l-3.485 3.36a.89.89 0 0 0 1.234 1.28l5.07-4.89.002-.006.012-.01c0-.003.004-.004.005-.006.014-.01.023-.03.035-.042a.517.517 0 0 0 .02-.025c.014-.015.03-.03.04-.047l.01-.014c.014-.022.024-.046.037-.07.012-.023.027-.044.037-.07l.004-.014c.01-.025.016-.05.024-.077.006-.024.015-.047.02-.07 0-.007 0-.013.003-.02.006-.025.007-.052.01-.08.003-.025.01-.05.01-.08v-.012c0-.026-.007-.052-.01-.078a.41.41 0 0 0-.008-.08l-.002-.018c-.005-.023-.014-.046-.022-.07-.01-.027-.014-.053-.025-.078l-.005-.016c-.01-.023-.024-.044-.036-.066-.013-.025-.024-.05-.04-.072-.002-.004-.004-.01-.007-.013-.01-.017-.027-.032-.04-.048a.067.067 0 0 0-.017-.02.225.225 0 0 0-.04-.05c0-.005-.003-.006-.005-.008l-.01-.01-.006-.006-5.07-4.89a.89.89 0 0 0-1.258.024zm-7.917 10.875a12.052 12.052 0 0 0 2.37 3.273 11.954 11.954 0 0 0 7.56 3.398c6.612.462 12.346-4.523 12.81-11.134.46-6.61-4.524-12.345-11.135-12.807a12.002 12.002 0 0 0-11.625 6.708.89.89 0 1 0 1.598.78 10.225 10.225 0 0 1 9.903-5.712c5.632.394 9.878 5.28 9.484 10.91-.394 5.632-5.278 9.878-10.91 9.484a10.176 10.176 0 0 1-6.44-2.893 10.275 10.275 0 0 1-2.02-2.79.89.89 0 0 0-1.595.786z" fill="#A1B6E0"/><use stroke="#A1B6E0" mask="url(#b)" stroke-width="4" xlink:href="#a"/></g></svg>