<svg xmlns="http://www.w3.org/2000/svg" viewBox="0 0 60 60" width="60" height="60"><title>circleTwo</title>
  <defs>
    <filter id="a" width="64" height="64" x="-2" y="-2" filterUnits="userSpaceOnUse">
      <feColorMatrix values="1 0 0 0 0 0 1 0 0 0 0 0 1 0 0 0 0 0 1 0"/>
    </filter>
  </defs>
  <mask id="b" width="64" height="64" x="-2" y="-2" maskUnits="userSpaceOnUse">
    <circle cx="30" cy="30" r="30" fill="#FFF" filter="url(#a)"/>
  </mask>
  <circle cx="30" cy="30" r="30" fill="none" stroke="#A1B6E0" stroke-width="4" mask="url(#b)"/>
  <path fill="#A1B6E0" d="M21 43.5v-2.3l3-3c7.2-7 10.5-10.6 10.5-15 0-2.8-1.4-5.4-5.6-5.4-2.8 0-5 1.3-6.3 2.4l-1.2-2.7c2-1.7 4.8-3 8-3 6.2 0 8.8 4.3 8.8 8.3 0 5.3-3.8 9.6-9.8 15.3l-2.3 2.4H39v3.2H21z" enable-background="new"/>
</svg>
