<svg width="24" height="34" viewBox="0 0 24 34" xmlns="http://www.w3.org/2000/svg"><title>upload</title><g fill="#444546" fill-rule="evenodd"><path d="M22.5 1.51v30.98h-21V1.51h21zM24 0H0v34h24V0z"/><path d="M5 5h14v2H5zM5 9h14v1H5zM5 12h14v1H5zM5 15h14v1H5zM3 25v5h8v-5H3zm5.5 3.357L7.857 29 7 28.143 6.143 29l-.643-.643.857-.857-.857-.857.643-.643.857.857.857-.857.643.643-.858.857.858.857zM13 25v5h8v-5h-8zm4.69 3.308l-.662.692-1.654-1.73.66-.693.994 1.038L18.572 26l.662.692-1.544 1.616z"/></g></svg>