<svg width="22" height="22" viewBox="0 0 22 22" xmlns="http://www.w3.org/2000/svg"><title>status</title><path d="M10.418 21.985a11.046 11.046 0 0 1-5.965-2.148c-.46-.343-.793-.632-1.226-1.064a10.652 10.652 0 0 1-2.128-2.99 10.968 10.968 0 0 1 0-9.567 10.652 10.652 0 0 1 2.127-2.99A10.652 10.652 0 0 1 6.217 1.1a10.968 10.968 0 0 1 9.567 0 10.652 10.652 0 0 1 2.99 2.127 10.652 10.652 0 0 1 2.127 2.99 10.968 10.968 0 0 1 0 9.567 10.652 10.652 0 0 1-2.127 2.99c-.73.728-1.437 1.27-2.313 1.774a11.028 11.028 0 0 1-6.042 1.437zm1.625-2.792a8.23 8.23 0 0 0 1.656-.39 8.256 8.256 0 0 0 5.413-6.266c.108-.566.13-.834.13-1.537s-.022-.97-.13-1.537a8.263 8.263 0 0 0-6.576-6.576c-.566-.108-.834-.13-1.537-.13s-.97.022-1.537.13a8.263 8.263 0 0 0-6.576 6.576c-.108.566-.13.834-.13 1.537s.022.97.13 1.537c.676 3.544 3.58 6.252 7.146 6.663.444.05.444.05 1.085.044.454-.005.682-.018.925-.05zm-1.254-2.42c-.56-.102-1.002-.562-1.097-1.14a.933.933 0 0 1 0-.408 1.362 1.362 0 0 1 1.146-1.146.933.933 0 0 1 .407 0 1.362 1.362 0 0 1 1.146 1.145c.03.184.03.223 0 .408a1.37 1.37 0 0 1-1.106 1.14 1.137 1.137 0 0 1-.498 0zM9.666 9.236v-3.44h2.752v6.88H9.666v-3.44z" fill="#FFF" fill-rule="evenodd"/></svg>