<svg width="18" height="18" viewBox="0 0 18 18" xmlns="http://www.w3.org/2000/svg"><title>export</title><g fill="#5573AE" fill-rule="evenodd"><path d="M.918 18A.912.912 0 0 1 0 17.093v-5.186c0-.5.41-.907.918-.907.507 0 .917.406.917.907v4.28h14.33v-4.28c0-.5.41-.907.917-.907.507 0 .918.406.918.907v5.186c0 .5-.41.907-.917.907H.918z"/><path d="M13.453 9.562l-3.87 3.9a.898.898 0 0 1-.646.268.87.87 0 0 1-.5-.152.75.75 0 0 1-.142-.117L4.423 9.563a.925.925 0 0 1 0-1.3.908.908 0 0 1 1.29 0l2.313 2.334V.918c0-.507.41-.918.91-.918.505 0 .913.41.913.918v9.677l2.313-2.333a.908.908 0 0 1 1.29 0 .926.926 0 0 1 0 1.3z"/></g></svg>