<?xml version="1.0" encoding="UTF-8"?>
<svg width="24px" height="25px" viewBox="0 0 24 25" version="1.1" xmlns="http://www.w3.org/2000/svg" xmlns:xlink="http://www.w3.org/1999/xlink">
    <!-- Generator: Sketch 43 (38999) - http://www.bohemiancoding.com/sketch -->
    <title>exportIcon</title>
    <desc>Created with Sketch.</desc>
    <defs>
        <polygon id="path-1" points="23.85 0.000146131078 23.85 24.9549504 11.92503 24.9549504 6.00000011e-05 24.9549504 6.00000011e-05 0.000146131078"></polygon>
    </defs>
    <g id="Icons" stroke="none" stroke-width="1" fill="none" fill-rule="evenodd">
        <g id="Export-Icon">
            <mask id="mask-2" fill="#636566">
                <use xlink:href="#path-1"></use>
            </mask>
            <g id="Clip-2"></g>
            <path d="M12.05976,16.2405696 C11.72856,16.2405696 11.45976,15.9787027 11.45976,15.6560453 L11.45976,1.9419359 L7.78716,5.3137644 C7.54596,5.53500685 7.16616,5.52419315 6.93906,5.28921438 C6.71166,5.0542356 6.72276,4.68423171 6.96396,4.46298926 L11.65206,0.159136744 C11.88336,-0.0530455814 12.24396,-0.0530455814 12.47526,0.159136744 L17.16156,4.46298926 C17.40276,4.68423171 17.41386,5.0542356 17.18646,5.28921438 C16.95906,5.52419315 16.57956,5.53471459 16.33836,5.31347214 L12.65976,1.93521387 L12.65976,15.6560453 C12.65976,15.978995 12.39096,16.2405696 12.05976,16.2405696 M23.25006,24.9549504 L0.60006,24.9549504 C0.26886,24.9549504 6.00000011e-05,24.6930835 6.00000011e-05,24.370426 L6.00000011e-05,7.38531856 C6.00000011e-05,7.06266114 0.26886,6.80079425 0.60006,6.80079425 L5.79066,6.80079425 C6.12186,6.80079425 6.39066,7.06266114 6.39066,7.38531856 C6.39066,7.70797598 6.12186,7.96984288 5.79066,7.96984288 L1.20006,7.96984288 L1.20006,23.7859017 L22.65006,23.7859017 L22.65006,7.96984288 L18.32886,7.96984288 C17.99796,7.96984288 17.72886,7.70797598 17.72886,7.38531856 C17.72886,7.06266114 17.99796,6.80079425 18.32886,6.80079425 L23.25006,6.80079425 C23.58096,6.80079425 23.85006,7.06266114 23.85006,7.38531856 L23.85006,24.370426 C23.85006,24.6930835 23.58096,24.9549504 23.25006,24.9549504" id="Fill-1" fill="#636566" mask="url(#mask-2)"></path>
        </g>
    </g>
</svg>