<svg width="60" height="60" viewBox="0 0 60 60" xmlns="http://www.w3.org/2000/svg" xmlns:xlink="http://www.w3.org/1999/xlink"><defs><path d="M19.21 19.2c-1.33 0-2.41.936-2.41 2.268v15.116c0 1.33 1.08 2.478 2.41 2.478h1.19V46.8l7.31-7.738h15.48c1.33 0 2.41-1.147 2.41-2.478V21.467c0-1.332-1.08-2.268-2.41-2.268H19.21zm5.565 11.82a1.994 1.994 0 1 1 0-3.988 1.994 1.994 0 0 1 0 3.988zm6.868 0a1.994 1.994 0 1 1 0-3.988 1.994 1.994 0 0 1 0 3.988zm6.646 0a1.994 1.994 0 1 1 0-3.987 1.994 1.994 0 0 1 0 3.987z" id="b"/><filter x="-50%" y="-50%" width="200%" height="200%" filterUnits="objectBoundingBox" id="a"><feOffset dy="1" in="SourceAlpha" result="shadowOffsetOuter1"/><feGaussianBlur stdDeviation="1" in="shadowOffsetOuter1" result="shadowBlurOuter1"/><feColorMatrix values="0 0 0 0 0 0 0 0 0 0 0 0 0 0 0 0 0 0 0.102128623 0" in="shadowBlurOuter1"/></filter></defs><g fill="none" fill-rule="evenodd"><circle fill="#FBBC05" cx="30" cy="30" r="30"/><use fill="#000" filter="url(#a)" xlink:href="#b"/><use fill="#FFF" xlink:href="#b"/></g></svg>