<svg width="18" height="18" viewBox="0 0 18 18" xmlns="http://www.w3.org/2000/svg"><g fill="#5573AE" fill-rule="evenodd"><path d="M16.455 8.085H5.435A.436.436 0 0 0 5 8.523c0 .242.194.438.434.438h10.993l-2.58 2.794a.44.44 0 0 0 0 .62c.17.17.444.17.613 0L18 8.512 14.515 4.63a.43.43 0 0 0-.614 0 .44.44 0 0 0 0 .62l2.556 2.837z"/><path d="M2 18h8c1.103 0 2-.897 2-2v-4.5h-1V16c0 .55-.448 1-1 1H2c-.55 0-1-.45-1-1V2a1 1 0 0 1 1-1h8a1 1 0 0 1 1 1v3.5h1V2c0-1.103-.897-2-2-2H2C.897 0 0 .897 0 2v14c0 1.103.897 2 2 2"/></g></svg>