<svg width="78" height="30" viewBox="0 0 78 30" xmlns="http://www.w3.org/2000/svg"><title>logoEdAssist</title><path d="M49.763 2.446c-12.923-4.42-26.98-2.123-37.29 8.128-.063.064.586.932.96 1.245.628.527 1.43 1.077 1.62.914 13.193-13.913 31.65-10.82 34.71-10.29M0 29.542h12.214l1.026-4.018h-.628c-.582 1.355-1.237 2.21-1.967 2.56-.73.353-1.86.53-3.392.53-1.414 0-2.263-.043-2.546-.13-.284-.084-.426-.362-.426-.835v-5.89H7.77c.957 0 1.567.15 1.832.447.264.297.48.906.65 1.827h.53V18.54h-.53c-.162.918-.375 1.527-.64 1.827-.265.3-.88.45-1.843.45H4.28V15.51c0-.31.04-.52.117-.633.078-.112.282-.168.614-.168h3.08c1.323 0 2.177.153 2.56.46.382.31.67.987.86 2.036h.574l-.077-3.404H0v.44c.838.063 1.38.224 1.622.483.243.26.364.81.364 1.654v10.58c0 .892-.123 1.45-.37 1.67-.246.22-.785.374-1.616.466v.442zm18.674-10.974c-1.345 0-2.484.602-3.414 1.806-.93 1.204-1.396 2.645-1.396 4.326 0 1.34.388 2.518 1.164 3.536.776 1.018 1.79 1.527 3.04 1.527.706 0 1.328-.174 1.864-.522.302-.2.66-.537 1.07-1.01v1.43l.077.104 1.73-.685c1.023-.373 1.557-.566 1.6-.58v-.385a1.82 1.82 0 0 1-.242.03c-.08.003-.163.005-.244.005-.508 0-.82-.102-.938-.303-.117-.2-.176-.554-.176-1.057l.022-9.488c0-.457.004-.92.01-1.388l.023-1.365.023-1.22-.067-.024a11.04 11.04 0 0 1-.584.22c-.25.093-.54.19-.872.29-.33.1-.66.198-.992.29l-.905.245v.384a56.5 56.5 0 0 0 .44-.046c.067-.01.144-.013.232-.013.374 0 .612.09.71.267.1.18.15.503.15.976v3.693a3.544 3.544 0 0 0-.85-.672 3.005 3.005 0 0 0-1.48-.372zm.41 9.94c-1.09 0-1.91-.487-2.457-1.463-.548-.975-.822-2.086-.822-3.333 0-1.26.258-2.324.773-3.187s1.236-1.295 2.163-1.295c.487 0 .985.207 1.497.62.51.416.767 1.126.767 2.133v4.98c0 .32-.177.656-.53 1.012-.353.356-.816.534-1.39.534zm10.41-5.075l2.603-6.55 2.59 6.55h-5.192zm-.062 6.11V29.1c-.528-.045-.888-.114-1.08-.207-.308-.154-.462-.43-.462-.832 0-.2.057-.47.17-.813.115-.343.466-1.293 1.053-2.85h5.954l.905 2.29c.133.323.235.63.31.924.073.293.11.498.11.613 0 .347-.096.565-.287.653-.192.09-.617.164-1.278.226v.442h5.746v-.44c-.53-.078-.906-.222-1.13-.434-.225-.212-.524-.764-.9-1.657l-5.63-13.483h-.45L27.757 25.2c-.706 1.75-1.204 2.82-1.494 3.21-.29.392-.726.622-1.307.69v.442h4.477zm11.785.092h.287a.685.685 0 0 1 .154-.238.32.32 0 0 1 .23-.098c.104 0 .434.075.992.23.558.155 1.058.232 1.5.232 1.048 0 1.898-.29 2.548-.87.65-.582.975-1.33.975-2.242 0-1.192-.783-2.237-2.35-3.135l-1.456-.824c-1.015-.556-1.523-1.19-1.523-1.903 0-.45.147-.84.442-1.173.294-.333.698-.5 1.213-.5.86 0 1.517.388 1.973 1.162.25.418.45 1.003.596 1.754h.34l-.076-3.242H46.8a.472.472 0 0 1-.155.186c-.06.04-.154.058-.287.058-.06 0-.32-.077-.788-.232a4.105 4.105 0 0 0-1.286-.232c-.89 0-1.63.278-2.218.836-.588.558-.883 1.27-.883 2.137 0 .707.214 1.318.64 1.836.427.52 1.093 1.034 2 1.545l1.234.744c.463.287.787.58.97.883.184.302.276.615.276.94 0 .512-.16.928-.48 1.25-.318.32-.753.48-1.303.48-.99 0-1.743-.432-2.257-1.3-.285-.472-.513-1.15-.682-2.032h-.362v3.75zm7.55 0h.287a.68.68 0 0 1 .155-.238.32.32 0 0 1 .23-.098c.102 0 .433.075.99.23.558.155 1.057.232 1.498.232 1.05 0 1.9-.29 2.55-.87.65-.582.974-1.33.974-2.242 0-1.192-.783-2.237-2.35-3.135l-1.457-.824c-1.015-.556-1.522-1.19-1.522-1.903 0-.45.147-.84.44-1.173.296-.333.7-.5 1.215-.5.86 0 1.52.388 1.975 1.162.25.418.45 1.003.595 1.754h.343l-.077-3.242h-.265a.47.47 0 0 1-.154.186c-.06.04-.154.058-.287.058-.06 0-.322-.077-.79-.232a4.11 4.11 0 0 0-1.285-.232c-.89 0-1.63.278-2.217.836-.59.558-.883 1.27-.883 2.137 0 .707.213 1.318.64 1.836.427.52 1.093 1.034 1.997 1.545l1.235.744c.463.287.786.58.97.883.184.302.276.615.276.94 0 .512-.16.928-.48 1.25-.317.32-.752.48-1.302.48-.99 0-1.742-.432-2.256-1.3-.286-.472-.514-1.15-.683-2.032h-.363v3.75zm7.264-.093h5.365v-.325c-.714-.062-1.172-.205-1.374-.43-.2-.224-.303-.777-.303-1.66v-8.34a.654.654 0 0 0-.022-.173c-.058 0-.19.047-.397.14-.507.224-1.404.557-2.692.998l-.474.163v.36c.37-.108.59-.17.667-.186.077-.017.156-.025.24-.025.35 0 .582.16.692.476.067.195.1.543.1 1.046v5.54c0 .906-.104 1.46-.31 1.666-.205.206-.702.347-1.49.424v.325zm6.34.093h.29a.67.67 0 0 1 .153-.238.318.318 0 0 1 .23-.098c.104 0 .434.075.992.23.56.155 1.058.232 1.498.232 1.05 0 1.9-.29 2.55-.87.65-.582.975-1.33.975-2.242 0-1.192-.783-2.237-2.35-3.135l-1.457-.824c-1.014-.556-1.52-1.19-1.52-1.903 0-.45.146-.84.44-1.173.294-.333.7-.5 1.214-.5.86 0 1.52.388 1.975 1.162.25.418.447 1.003.595 1.754h.342l-.078-3.242h-.265a.475.475 0 0 1-.155.186c-.06.04-.156.058-.288.058-.06 0-.32-.077-.788-.232a4.11 4.11 0 0 0-1.286-.232c-.89 0-1.63.278-2.218.836-.588.558-.882 1.27-.882 2.137 0 .707.213 1.318.64 1.836.427.52 1.092 1.034 1.997 1.545l1.235.744c.463.287.787.58.97.883.185.302.277.615.277.94 0 .512-.16.928-.48 1.25-.317.32-.753.48-1.303.48-.99 0-1.743-.432-2.256-1.3-.287-.472-.514-1.15-.683-2.032h-.364v3.75zm10.457-10.8v-2.857c0-.1-.01-.16-.028-.175-.02-.015-.077-.023-.17-.023-.834 1.178-1.36 1.903-1.585 2.178-.225.275-.59.633-1.098 1.074-.177.156-.28.254-.314.297a.29.29 0 0 0-.05.18c0 .037.01.067.027.09a.323.323 0 0 0 .082.07h1.203v7.037c0 .783.084 1.394.254 1.836.306.813.895 1.22 1.763 1.22.397 0 .81-.113 1.236-.338.425-.224.83-.608 1.212-1.15l.243-.348-.287-.255c-.25.286-.474.495-.67.626a1.196 1.196 0 0 1-.688.197c-.515 0-.86-.267-1.037-.802-.096-.3-.144-.746-.144-1.335l.022-6.69h2.252v-.835h-2.23zm-14.203-1.917a1.2 1.2 0 0 0 1.19-1.21 1.2 1.2 0 0 0-1.19-1.208 1.2 1.2 0 0 0-1.19 1.21 1.2 1.2 0 0 0 1.19 1.208m.206-9.508l-2.676-2.33 1.495-3.04-3.02 1.658-2.584-2.43.807 3.36-3.09 1.538 3.52.417.67 3.38 1.37-3.1zm17.388 9.025h-.45v1.135h-.188v-1.135h-.45v-.167h1.088zm1.385 1.135h-.186v-1.015h-.004l-.402.504h-.03l-.4-.506h-.003v1.014h-.187v-1.303h.175l.43.535.435-.535h.173z" fill="#7F8082" fill-rule="evenodd"/></svg>