<?xml version="1.0" encoding="utf-8"?>
<!-- Generator: Adobe Illustrator 18.0.0, SVG Export Plug-In . SVG Version: 6.00 Build 0)  -->
<!DOCTYPE svg PUBLIC "-//W3C//DTD SVG 1.1//EN" "http://www.w3.org/Graphics/SVG/1.1/DTD/svg11.dtd">
<svg version="1.1" id="Layer_2" xmlns="http://www.w3.org/2000/svg" xmlns:xlink="http://www.w3.org/1999/xlink" x="0px" y="0px"
	 viewBox="0 0 57.2 65" enable-background="new 0 0 57.2 65" xml:space="preserve">
<g id="Icons">
	<g id="Purple-Calendar-Icon">
		<path fill="#FFFFFF" d="M47.1,58H8.7C5.2,58,2,55.3,2,51.5V13.4c0-3.6,3.2-6.5,6.5-6.5h1.6V1.6h7.6V7h19.9V1.6h7.9V7h1.8
			c3.6,0,6.7,2.7,6.7,6.5v38C53.8,55.3,50.7,58,47.1,58z M8.7,9.3c-2.5,0-4.5,2-4.5,4.5v38.1c0,2.5,2,4.5,4.5,4.5h38.6
			c2.5,0,4.5-2,4.5-4.5V13.7c0-2.5-2-4.5-4.5-4.5h-3.9V3.9h-3.4v5.4H15.7V3.9h-3.4v5.4H8.7z M48.2,52.7H7.6V20.8h40.6
			C48.2,20.8,48.2,52.7,48.2,52.7z M9.6,50.3h36.5V22.6H9.6C9.6,22.7,9.6,50.3,9.6,50.3z M42.9,33.6h-7.6V26h7.6V33.6z M37.2,31.6
			h3.4v-3.4h-3.4V31.6z M31.7,33.6h-7.6V26h7.6V33.6z M26.1,31.6h3.4v-3.4h-3.4V31.6z M20.7,33.6h-7.9V26h7.6v7.6H20.7z M15.1,31.6
			h3.4v-3.4h-3.4V31.6z"/>
	</g>
</g>
</svg>
