<svg width="22" height="22" viewBox="0 0 22 22" xmlns="http://www.w3.org/2000/svg"><title>navNewApp</title><path d="M21.856 10.29L11.28 1.12a.44.44 0 0 0-.623.02L.144 10.29a.418.418 0 0 0 .547.63l1.676-1.46v11.154c0 .23.187.418.418.418H8.25c.23 0 .415-.188.415-.418v-5.54H13.3v5.54c0 .23.19.418.418.418h5.464a.416.416 0 0 0 .417-.418V9.454l1.708 1.465c.08.068.177.1.274.1a.416.416 0 0 0 .274-.73zm-3.09-1.392v11.3h-4.632v-5.542c0-.23-.186-.42-.416-.42H8.25a.42.42 0 0 0-.42.42v5.54H3.203V8.9a.416.416 0 0 0-.028-.14l7.806-6.792 7.813 6.79a.397.397 0 0 0-.027.142z" fill="#FFF" fill-rule="evenodd"/></svg>