<svg width="22" height="22" viewBox="0 0 22 22" xmlns="http://www.w3.org/2000/svg"><title>navNewApp</title><g fill="#FFF" fill-rule="evenodd"><path d="M1.933 11.807h13.785c.3 0 .543-.258.543-.576 0-.317-.242-.575-.542-.575H1.968l3.227-3.672a.6.6 0 0 0 0-.814.52.52 0 0 0-.768 0L0 11.242l4.36 5.11a.526.526 0 0 0 .383.17c.14 0 .278-.057.384-.17a.6.6 0 0 0 0-.814l-3.194-3.733z"/><path d="M19.768 1H10.84C9.61 1 8.61 2 8.61 3.23v5.024h1.115V3.23c0-.613.5-1.115 1.116-1.115h8.928c.615 0 1.116.502 1.116 1.116v15.625c0 .615-.5 1.116-1.116 1.116H10.84c-.615 0-1.115-.5-1.115-1.115V14.95H8.61v3.905c0 1.23 1 2.232 2.23 2.232h8.928c1.23 0 2.232-1 2.232-2.232V3.23C22 2 21 1 19.768 1"/></g></svg>