<svg width="20" height="22" viewBox="0 0 20 22" xmlns="http://www.w3.org/2000/svg"><title>navNewApp</title><g fill="#FFF" fill-rule="evenodd"><path d="M7.966 16.727H6.273v-1.693c0-.203-.227-.367-.506-.367-.28 0-.506.164-.506.367v1.693H3.57c-.203 0-.368.227-.368.506 0 .28.165.506.368.506h1.69v1.69c0 .204.227.37.507.37s.506-.166.506-.37v-1.69h1.693c.203 0 .367-.227.367-.507s-.164-.506-.367-.506"/><path d="M5.767 13.25a3.987 3.987 0 0 0-3.983 3.984 3.987 3.987 0 0 0 3.983 3.982 3.987 3.987 0 0 0 3.982-3.982 3.987 3.987 0 0 0-3.984-3.983m0 8.75A4.772 4.772 0 0 1 1 17.235a4.772 4.772 0 0 1 4.767-4.767 4.772 4.772 0 0 1 4.766 4.767A4.772 4.772 0 0 1 5.767 22"/><path d="M13.644 4.33a.22.22 0 0 1-.224-.217V2.19l2.198 2.14h-1.974zM12.754 0h-8.21C3.802 0 3.2.586 3.2 1.31v10.358h1.12V1.31c0-.12.1-.218.224-.218h7.746l.01.01v3.013c0 .723.602 1.31 1.344 1.31h3.093l.01.008V19.23c0 .12-.1.216-.224.216h-5.206v1.09h5.206c.742 0 1.344-.585 1.344-1.308V4.978L12.754 0z"/></g></svg>