<svg width="22" height="22" viewBox="0 0 22 22" xmlns="http://www.w3.org/2000/svg" xmlns:xlink="http://www.w3.org/1999/xlink"><title>navNewApp</title><defs><path id="a" d="M22 14H0V0h22z"/></defs><g transform="translate(0 4)" fill="none" fill-rule="evenodd"><mask id="b" fill="#fff"><use xlink:href="#a"/></mask><path d="M7.045 6.658L.733 12.785V1.755L7.045 6.66zM20.778.712c.038 0 .074.005.11.013l.033.01a.464.464 0 0 1 .244.164l.013.014L11 8.817.823.914C.827.91.833.904.836.9A.492.492 0 0 1 .89.84L.918.818a.514.514 0 0 1 .06-.04c.01-.005.02-.012.032-.017a.464.464 0 0 1 .07-.025l.032-.01a.508.508 0 0 1 .11-.013h19.556zM7.615 7.1L11 9.73l3.385-2.63c.01.01.013.023.023.033l6.34 6.155H1.252l6.34-6.155c.01-.01.014-.022.023-.033zm13.652 5.685l-6.312-6.127 6.312-4.902v11.03zM20.777 0H1.223C.547 0 0 .53 0 1.187v11.626C0 13.47.547 14 1.222 14h19.556c.675 0 1.222-.53 1.222-1.187V1.187C22 .53 21.453 0 20.778 0z" fill="#FFF" mask="url(#b)"/></g></svg>