<?xml version="1.0" encoding="UTF-8"?>
<svg width="27px" height="27px" viewBox="0 0 27 27" version="1.1" xmlns="http://www.w3.org/2000/svg" xmlns:xlink="http://www.w3.org/1999/xlink">
    <!-- Generator: Sketch 43 (38999) - http://www.bohemiancoding.com/sketch -->
    <title>page</title>
    <desc>Created with Sketch.</desc>
    <defs></defs>
    <g id="Icons" stroke="none" stroke-width="1" fill="none" fill-rule="evenodd">
        <g id="Ticket-(Admin-Search)-Icon" stroke="#636566">
            <path d="M25.9078366,9.42599431 L24.8741613,8.39200465 C24.8147619,8.33291953 24.7355626,8.29991986 24.6519635,8.29991986 C24.56805,8.29991986 24.4882223,8.33291953 24.4297657,8.39200465 C24.1126546,8.7084872 23.5607744,8.7084872 23.2442918,8.39200465 C22.9177523,8.06515078 22.917438,7.53369895 23.2442918,7.20684507 C23.3036912,7.14775995 23.3363766,7.06793218 23.3363766,6.9846473 C23.3363766,6.90136241 23.3036912,6.82122036 23.2442918,6.76244952 L22.556013,6.0738564 C22.4378428,5.95600044 22.2291591,5.95600044 22.1116175,6.0738564 C21.7951349,6.39033895 21.2429404,6.39033895 20.9261436,6.0738564 C20.599604,5.74700253 20.599604,5.2155507 20.9261436,4.88869683 C21.0490281,4.76581234 21.0490281,4.56718576 20.9261436,4.44430127 L20.238179,3.75570816 C20.1787796,3.69662303 20.0995804,3.66362336 20.0159813,3.66362336 C19.9320678,3.66362336 19.85224,3.69662303 19.7937835,3.75570816 C19.4766724,4.07219071 18.9247922,4.07219071 18.6083096,3.75570816 C18.28177,3.42885428 18.28177,2.89740245 18.6083096,2.57054858 C18.667709,2.51146346 18.7003944,2.43163568 18.7003944,2.3483508 C18.7003944,2.26506592 18.667709,2.18492387 18.6083096,2.12615302 L17.57432,1.09216336 C17.4517498,0.969278879 17.2531232,0.969278879 17.1299244,1.09216336 L11.2132407,7.00884705 C11.2038122,7.01607555 8.34415513,9.86818989 8.34415513,9.86818989 C8.33535522,9.87667552 1.09208479,17.130003 1.09208479,17.130003 C1.03299967,17.1890881 1,17.2686016 1,17.3522008 C1,17.4357999 1.03299967,17.5156277 1.09208479,17.5743985 L2.12607445,18.6080739 C2.24895894,18.7306441 2.44758552,18.7306441 2.57047001,18.6080739 C2.88695256,18.2915914 3.43851847,18.2912771 3.75562959,18.6080739 C4.08248346,18.9349278 4.08248346,19.4663796 3.75562959,19.7932335 C3.6327451,19.916118 3.6327451,20.1147446 3.75562959,20.2376291 L4.44390842,20.9259079 C4.5667929,21.0484781 4.76541949,21.0481638 4.88830397,20.9262222 C5.20510081,20.6091111 5.75760957,20.6100539 6.07346355,20.9259079 C6.40000314,21.2524475 6.40000314,21.7842136 6.07346355,22.1110675 C5.95057907,22.2339519 5.95057907,22.4325785 6.07346355,22.555463 L6.76174238,23.2437418 C6.88462687,23.3663121 7.08325345,23.3663121 7.20613794,23.2437418 C7.52262049,22.9272593 8.07481497,22.926945 8.39129752,23.2437418 C8.71752282,23.5702814 8.71752282,24.1020476 8.39098323,24.4289014 C8.26841303,24.5517859 8.26841303,24.7504125 8.39129752,24.873297 L9.42528718,25.9066581 C9.48625799,25.9682575 9.56671433,25.9987429 9.64748495,25.9987429 C9.72794129,25.9987429 9.80808335,25.9682575 9.86968273,25.9066581 L17.0658108,18.7108443 C17.0909534,18.6963873 17.1173531,18.6831875 17.1387243,18.6624448 L19.9785816,15.8222732 C19.99901,15.8015306 20.0109527,15.7757594 20.0254097,15.7512453 L25.9078366,9.87038987 C26.0307211,9.74750538 26.0307211,9.54856451 25.9078366,9.42599431 Z" id="Page-1"></path>
        </g>
    </g>
</svg>