<svg width="20" height="20" viewBox="0 0 20 20" xmlns="http://www.w3.org/2000/svg"><title>password</title><path d="M16.954 9.474h-.697v-3.51h-.01c.003-.058.01-.116.01-.175C16.257 2.59 13.68 0 10.5 0 7.32 0 4.744 2.592 4.744 5.79c0 .058.005.116.007.175H4.75v3.51h-.7A1.05 1.05 0 0 0 3 10.525v8.422C3 19.527 3.468 20 4.046 20h12.908A1.05 1.05 0 0 0 18 18.948v-8.422a1.05 1.05 0 0 0-1.046-1.052zm-3.488-3.51v3.51h-5.93v-3.51h.01c-.005-.058-.01-.116-.01-.175A2.973 2.973 0 0 1 10.5 2.8a2.975 2.975 0 0 1 2.965 2.982c0 .058-.005.116-.01.175h.01z" fill="#D5D3D3" fill-rule="evenodd"/></svg>