<svg width="22" height="22" viewBox="0 0 22 22" xmlns="http://www.w3.org/2000/svg"><title>navNewApp</title><g fill="#636566" fill-rule="evenodd"><path d="M6.72 6.053c0-1.577.293-2.823.868-3.703C8.286 1.28 9.435.736 11 .736s2.713.544 3.41 1.614c.576.88.867 2.126.867 3.703 0 1.27-.6 3.054-1.57 4.66-.932 1.548-1.995 2.55-2.707 2.55-.714 0-1.777-1.002-2.71-2.55-.968-1.606-1.57-3.39-1.57-4.66M11 14c2.158 0 5-5 5-7.947 0-1.724-.334-3.108-.99-4.112C14.17.653 12.822 0 11 0 9.18 0 7.828.652 6.988 1.94 6.332 2.946 6 4.33 6 6.054 6 9 8.84 14 11 14M18.637 13.237c-1.577-.726-3.125-1.202-3.19-1.222-.187-.058-.382.057-.433.257-.054.2.053.407.24.464 2.51.767 6.047 2.362 6.047 3.497v4.83s.043.366.35.366.35-.17.35-.376v-4.82c0-.98-1.1-1.96-3.363-2.997M7.672 15.23c-.09-.205-.302-.29-.475-.186-.176.105-.248.357-.16.563C7.08 15.705 8.082 18 11.002 18s3.922-2.295 3.963-2.393c.087-.206.015-.458-.158-.563-.176-.103-.39-.02-.476.187-.01.022-.843 1.93-3.33 1.93-2.464 0-3.295-1.85-3.328-1.93M3.363 13.237c1.577-.726 3.125-1.202 3.19-1.222.187-.058.382.057.433.257.054.2-.053.407-.24.464C4.236 13.503.7 15.098.7 16.233v4.83s-.043.366-.35.366-.35-.17-.35-.376v-4.82c0-.98 1.1-1.96 3.363-2.997"/></g></svg>