<?xml version="1.0" encoding="UTF-8"?>
<svg width="36px" height="36px" viewBox="0 0 36 36" version="1.1" xmlns="http://www.w3.org/2000/svg" xmlns:xlink="http://www.w3.org/1999/xlink">
    <!-- Generator: Sketch 43 (38999) - http://www.bohemiancoding.com/sketch -->
    <title>Profile</title>
    <desc>Created with Sketch.</desc>
    <defs>
        <polygon id="path-1" points="9.66389371 11.3492063 0 11.3492063 0 5.68408028 0 0.0189542138 9.66389371 0.0189542138"></polygon>
    </defs>
    <g id="Icons" stroke="none" stroke-width="1" fill="none" fill-rule="evenodd">
        <g id="Profile">
            <circle id="Oval-2" stroke="#5573AE" fill="#5573AE" cx="18" cy="18" r="17"></circle>
            <g id="profile" transform="translate(5.000000, 6.000000)">
                <path d="M8.32109269,7.49410193 C8.32109269,5.54116317 8.68218309,3.998582 9.39415915,2.90910399 C10.2589445,1.58452528 11.68185,0.911015208 13.6194401,0.911015208 C15.5570302,0.911015208 16.9775808,1.58452528 17.8423661,2.90910399 C18.5538189,3.998582 18.9149093,5.54143033 18.9149093,7.49410193 C18.9149093,9.0647349 18.1707491,11.2749486 16.9718243,13.2644883 C15.81712,15.1808261 14.50071,16.4193794 13.6194401,16.4193794 C12.735292,16.4193794 11.4191436,15.1808261 10.2641777,13.2644883 C9.06577622,11.2749486 8.32109269,9.0647349 8.32109269,7.49410193 M13.6194401,17.3333333 C16.2904624,17.3333333 19.8095238,11.1437731 19.8095238,7.49410193 C19.8095238,5.35949445 19.3963631,3.64673243 18.5833864,2.40337032 C17.5438124,0.807624332 15.8744235,0 13.6194401,0 C11.3644567,0 9.69218956,0.807624332 8.65209222,2.40337032 C7.83937717,3.64673243 7.42857143,5.35922729 7.42857143,7.49410193 C7.42883309,11.143506 10.9458012,17.3333333 13.6194401,17.3333333" id="Fill-1" fill="#FFFFFF"></path>
                <g id="Group-5" transform="translate(0.000000, 14.857143)">
                    <mask id="mask-2" fill="white">
                        <use xlink:href="#path-1"></use>
                    </mask>
                    <g id="Clip-4"></g>
                    <path d="M0.967836735,10.9422977 L0.967836735,5.10537449 C0.967836735,3.74188612 5.84579048,1.82835714 9.3144381,0.903528793 C9.56913197,0.834377815 9.71713741,0.58601495 9.64610612,0.345834072 C9.5722449,0.105917128 9.30283537,-0.0323848283 9.04842449,0.0367661499 C8.9564517,0.0615760428 6.81957007,0.632995386 4.64137143,1.50530066 C1.5182585,2.75318549 0,3.92901606 0,5.10537449 L0,10.8992763 C0,11.1476392 0.0472598639,11.3492855 0.482220408,11.3492855 C0.884353741,11.3492855 0.967836735,10.9422977 0.967836735,10.9422977" id="Fill-3" fill="#FFFFFF" mask="url(#mask-2)"></path>
                </g>
                <path d="M21.241996,16.3188959 C19.0097779,15.4607644 16.8190423,14.8987999 16.7273749,14.8746601 C16.4633959,14.8066533 16.1878134,14.9426669 16.1147115,15.1786141 C16.0389988,15.4148209 16.1907142,15.6593338 16.4544032,15.7270811 C20.0076766,16.6337518 25.010804,18.5184743 25.010804,19.8594021 L25.010804,25.5673003 C25.010804,25.5673003 25.0705618,26 25.5051119,26 C25.9396619,26 26,25.8016901 26,25.5574367 L26,19.8594021 C26,18.702508 24.4436842,17.5461329 21.241996,16.3188959" id="Fill-6" fill="#FFFFFF"></path>
                <path d="M9.49923229,17.6198063 C9.38871371,17.3648677 9.12526826,17.2603946 8.91039959,17.387407 C8.69270369,17.5177699 8.60403181,17.8299707 8.71377933,18.0849094 C8.7649263,18.2058301 10.0045335,21.047619 13.6200331,21.047619 C17.2329625,21.047619 18.4746258,18.2061347 18.5255158,18.0849094 C18.6332071,17.8299707 18.5447923,17.5177699 18.3299236,17.387407 C18.1117137,17.2603946 17.8485252,17.3648677 17.7408339,17.6198063 C17.730039,17.6456961 16.6978469,20.0092848 13.6200331,20.0092848 C10.5689493,20.0092848 9.53907038,17.7154463 9.49923229,17.6198063" id="Fill-8" fill="#FFFFFF"></path>
            </g>
        </g>
    </g>
</svg>