<?xml version="1.0" encoding="UTF-8"?>
<svg width="55px" height="52px" viewBox="0 0 55 52" version="1.1" xmlns="http://www.w3.org/2000/svg" xmlns:xlink="http://www.w3.org/1999/xlink">
    <!-- Generator: Sketch 43 (38999) - http://www.bohemiancoding.com/sketch -->
    <title>purpleSchoolHouse</title>
    <desc>Created with Sketch.</desc>
    <defs></defs>
    <g id="Icons" stroke="none" stroke-width="1" fill="none" fill-rule="evenodd">
        <g id="Purple-School-House-Icon" transform="translate(-1.000000, 0.000000)" fill="#5573AE">
            <rect id="Rectangle-74" x="1.77350427" y="49.5928571" width="53.4529915" height="2.00642857"></rect>
            <path d="M0.453605043,50.291809 L3.66655721,50.291809 L3.66655721,46.8844188 C3.66655721,45.7259062 4.60366826,44.771837 5.74158882,44.771837 L8.95454098,44.771837 L8.95454098,21.8741753 C8.95454098,20.3749236 10.159398,19.0801154 11.6989376,19.0801154 L13.5062232,19.0801154 C14.9788263,19.0801154 16.2506199,20.3067758 16.2506199,21.8741753 L16.2506199,44.7036892 L19.597445,44.7036892 L19.597445,21.8741753 C19.597445,20.3749236 20.8023021,19.0801154 22.3418417,19.0801154 L24.1491273,19.0801154 C25.6217304,19.0801154 26.8935239,20.3067758 26.8935239,21.8741753 L26.8935239,44.7036892 L30.2403491,44.7036892 L30.2403491,21.8741753 C30.2403491,20.3749236 31.4452062,19.0801154 32.9847457,19.0801154 L34.7920313,19.0801154 C36.2646344,19.0801154 37.536428,20.3067758 37.536428,21.8741753 L37.536428,44.7036892 L40.8832531,44.7036892 L40.8832531,21.8741753 C40.8832531,20.3749236 42.0881102,19.0801154 43.6276498,19.0801154 L45.4349354,19.0801154 C46.9075385,19.0801154 48.179332,20.3067758 48.179332,21.8741753 L48.179332,44.7036892 L51.2584112,44.7036892 C52.3963317,44.7036892 53.3334428,45.6577584 53.3334428,46.816271 L53.3334428,50.2236612 L56.546395,50.2236612 C57.6843155,50.2236612 -0.684315516,50.291809 0.453605043,50.291809 Z M51.3922842,50.9304762 L51.3922842,46.8844188 C51.3922842,46.816271 51.3253477,46.7481232 51.2584112,46.7481232 L46.1043004,46.7481232 L46.1043004,21.8741753 C46.1043004,21.4652885 45.7696179,21.0564017 45.3010624,21.0564017 L43.4937768,21.0564017 C43.0921578,21.0564017 42.6905387,21.3971407 42.6905387,21.8741753 L42.6905387,46.6799754 L35.4613964,46.6799754 L35.4613964,21.8741753 C35.4613964,21.4652885 35.1267138,21.0564017 34.6581583,21.0564017 L32.8508727,21.0564017 C32.4492537,21.0564017 32.0476347,21.3971407 32.0476347,21.8741753 L32.0476347,46.6799754 L24.8854288,46.6799754 L24.8854288,21.8741753 C24.8854288,21.4652885 24.5507463,21.0564017 24.0821908,21.0564017 L22.2749052,21.0564017 C21.8732862,21.0564017 21.4716671,21.3971407 21.4716671,21.8741753 L21.4716671,46.6799754 L14.3094613,46.6799754 L14.3094613,21.8741753 C14.3094613,21.4652885 13.9747787,21.0564017 13.5062232,21.0564017 L11.6989376,21.0564017 C11.2973186,21.0564017 10.8956996,21.3971407 10.8956996,21.8741753 L10.8956996,46.6799754 L5.74158882,46.6799754 C5.67465231,46.6799754 5.60771581,46.7481232 5.60771581,46.816271 L5.60771581,50.8623284 L51.3922842,50.9304762 Z M49.7188716,16.8993857 L7.2811284,16.8993857 C6.14320784,16.8993857 5.20609679,16.1497599 4.87141427,14.9912472 C4.60366826,13.8327346 5.07222378,12.7423698 6.07627134,12.1971873 L27.2951429,0.407617492 C28.0314445,-0.00126932288 28.901619,-0.00126932288 29.6379206,0.407617492 L50.8567922,12.1971873 C51.8608397,12.7423698 52.3293952,13.9008824 52.0616492,14.9912472 C51.7939032,16.1497599 50.8567922,16.8993857 49.7188716,16.8993857 L49.7188716,16.8993857 Z M28.5,2.04316475 C28.4330635,2.04316475 28.2991905,2.04316475 28.232254,2.11131256 L7.01338238,13.9008824 C6.67869987,14.1053258 6.74563637,14.377917 6.74563637,14.5142126 C6.74563637,14.6505082 6.87950938,14.9230994 7.2811284,14.9230994 L49.7188716,14.9230994 C50.0535541,14.9230994 50.1874271,14.6505082 50.2543636,14.5142126 C50.2543636,14.377917 50.3213001,14.1053258 49.9866176,13.9008824 L28.767746,2.11131256 C28.7008095,2.11131256 28.5669365,2.04316475 28.5,2.04316475 L28.5,2.04316475 Z M28.4330635,13.8327346 C26.2241589,13.8327346 24.4168733,11.9927439 24.4168733,9.74386644 C24.4168733,7.49498896 26.2241589,5.65499829 28.4330635,5.65499829 C30.6419681,5.65499829 32.4492537,7.49498896 32.4492537,9.74386644 C32.4492537,11.9927439 30.6419681,13.8327346 28.4330635,13.8327346 L28.4330635,13.8327346 Z M28.4330635,7.63128456 C27.2951429,7.63128456 26.3580319,8.5853538 26.3580319,9.74386644 C26.3580319,10.9023791 27.2951429,11.8564483 28.4330635,11.8564483 C29.5709841,11.8564483 30.5080951,10.9023791 30.5080951,9.74386644 C30.5080951,8.5853538 29.5709841,7.63128456 28.4330635,7.63128456 L28.4330635,7.63128456 Z" id="Shape"></path>
        </g>
    </g>
</svg>