<?xml version="1.0" encoding="UTF-8"?>
<svg width="46px" height="51px" viewBox="0 0 46 51" version="1.1" xmlns="http://www.w3.org/2000/svg" xmlns:xlink="http://www.w3.org/1999/xlink">
    <!-- Generator: Sketch 43 (38999) - http://www.bohemiancoding.com/sketch -->
    <title>purpleCalendar</title>
    <desc>Created with Sketch.</desc>
    <defs></defs>
    <g id="Icons" stroke="none" stroke-width="1" fill="none" fill-rule="evenodd">
        <g id="Purple-Calendar-Icon" stroke="#5573AE" stroke-width="2">
            <path d="M15.6666667,22.6333333 L10.7777778,22.6333333 L10.7777778,27.4407407 L15.6666667,27.4407407 L15.6666667,22.6333333 L15.6666667,22.6333333 Z M25.4444444,22.6333333 L20.5555556,22.6333333 L20.5555556,27.4407407 L25.4444444,27.4407407 L25.4444444,22.6333333 L25.4444444,22.6333333 Z M35.2222222,22.6333333 L30.3333333,22.6333333 L30.3333333,27.4407407 L35.2222222,27.4407407 L35.2222222,22.6333333 L35.2222222,22.6333333 Z M40.1111111,5.80740741 L37.6666667,5.80740741 L37.6666667,1 L32.7777778,1 L32.7777778,5.80740741 L13.2222222,5.80740741 L13.2222222,1 L8.33333333,1 L8.33333333,5.80740741 L5.88888889,5.80740741 C3.17555556,5.80740741 1.02444444,7.97074074 1.02444444,10.6148148 L1,44.2666667 C1,46.9107407 3.17555556,49.0740741 5.88888889,49.0740741 L40.1111111,49.0740741 C42.8,49.0740741 45,46.9107407 45,44.2666667 L45,10.6148148 C45,7.97074074 42.8,5.80740741 40.1111111,5.80740741 L40.1111111,5.80740741 Z M40.1111111,44.2666667 L5.88888889,44.2666667 L5.88888889,17.8259259 L40.1111111,17.8259259 L40.1111111,44.2666667 L40.1111111,44.2666667 Z" id="Shape-Copy"></path>
        </g>
    </g>
</svg>