<svg width="22" height="22" viewBox="0 0 22 22" xmlns="http://www.w3.org/2000/svg"><title>status</title><g transform="translate(0 4.5)" fill="#FFF" fill-rule="evenodd"><path d="M21.998 6.213c0-.01 0-.018-.002-.027v-.014l-.003-.02-.003-.022v-.003a.83.83 0 0 0-.23-.455c-.702-.837-1.537-1.58-2.386-2.26-1.83-1.467-3.92-2.692-6.228-3.186A10.325 10.325 0 0 0 9.13.17C7.91.39 6.732.846 5.632 1.41 3.91 2.298 2.337 3.518.967 4.886c-.254.253-.506.512-.737.787-.307.366-.307.8 0 1.165.702.837 1.537 1.58 2.386 2.26 1.83 1.466 3.92 2.692 6.228 3.185 1.334.286 2.676.298 4.017.057 1.22-.22 2.397-.677 3.497-1.243 1.723-.885 3.296-2.105 4.666-3.473.254-.254.506-.512.737-.787a.83.83 0 0 0 .233-.48c0-.007.002-.014.003-.02v-.014L22 6.296v-.042c0-.014 0-.027-.002-.04zM11 10.513c-2.338 0-4.233-1.907-4.233-4.26 0-2.35 1.895-4.256 4.233-4.256 2.338 0 4.233 1.906 4.233 4.257 0 2.352-1.895 4.258-4.233 4.258z"/><ellipse cx="11" cy="6" rx="1.5" ry="1.5"/></g></svg>