<svg width="22" height="22" viewBox="0 0 22 22" xmlns="http://www.w3.org/2000/svg"><title>status</title><path d="M19.747 4.844L18.52 6.07a.368.368 0 0 1-.522 0l-2.076-2.075a.37.37 0 0 1 0-.524l1.227-1.226a.832.832 0 0 1 1.175 0l1.422 1.423a.835.835 0 0 1 0 1.177zm-2.194 2.094l-6.787 6.793c-.144.243-.377.243-.522.1l-2.076-2.076a.37.37 0 0 1 0-.524l6.787-6.792a.37.37 0 0 1 .523 0l2.075 2.077c.146.144.146.38 0 .423zm-7.94 7.75L6.67 15.7l-.056.02a.28.28 0 0 1-.26-.075.274.274 0 0 1-.07-.26l.017-.053 1.01-2.947.018-.054a.267.267 0 0 1 .055-.08.28.28 0 0 1 .393 0l1.972 1.972a.28.28 0 0 1-.08.448l-.054.02zm2.146-9.8H3.89v13.223h13.22v-7.87a.945.945 0 0 1 1.89 0v8.815a.945.945 0 0 1-.945.945H2.945A.945.945 0 0 1 2 19.055V3.945C2 3.423 2.423 3 2.945 3h8.814a.945.945 0 0 1 0 1.89z" fill="#FFF" fill-rule="evenodd"/></svg>