<svg width="24" height="24" viewBox="0 0 24 24" xmlns="http://www.w3.org/2000/svg" xmlns:xlink="http://www.w3.org/1999/xlink"><title>complete</title><defs><path d="M12 24c6.627 0 12-5.373 12-12S18.627 0 12 0 0 5.373 0 12s5.373 12 12 12z" id="a"/><mask id="b" x="0" y="0" width="24" height="24" fill="#fff"><use xlink:href="#a"/></mask></defs><g fill="none" fill-rule="evenodd"><use stroke="#FFF" mask="url(#b)" stroke-width="4" fill="#158564" xlink:href="#a"/><path d="M16.92 6.168L9.68 13.41a.58.58 0 0 1-.817 0L7.08 11.628a.58.58 0 0 0-.818 0l-1.094 1.095a.58.58 0 0 0 0 .816l3.695 3.694a.58.58 0 0 0 .816 0L18.83 8.08a.58.58 0 0 0 0-.818l-1.094-1.094a.58.58 0 0 0-.817 0z" fill="#FFF"/></g></svg>